# xmcd
#
# Track frame offsets:
#	150
#	25009
#	48081
#	72220
#	91641
#	114160
#	131627
#	149223
#	164569
#	182058
#	204745
#	225396
#
# Disc length: 3221 seconds
#
# Revision: 0
# Processed by: cddbd v1.5.1PL2 Copyright (c) Steve Scherf et al.
# Submitted via: dBpowerAMP V4.0
#
DISCID=9f0c930c
DTITLE=Alber Castiglia - A Stone's Throw
DYEAR=2006
DGENRE=Blues
TTITLE0=Big Toe
TTITLE1=Walking Blues
TTITLE2=Youth Wants To Know
TTITLE3=Ghosts of Mississippi
TTITLE4=Hurricane Blues
TTITLE5=Party Till The Cows Come Home
TTITLE6=Hoodoo Man Blues
TTITLE7=Speed On
TTITLE8=Rise and Fall of Flingel Bunt
TTITLE9=Crying The Blues
TTITLE10=Someone Else's Problem
TTITLE11=Sittin and Waitin
EXTD=
EXTT0=
EXTT1=
EXTT2=
EXTT3=
EXTT4=
EXTT5=
EXTT6=
EXTT7=
EXTT8=
EXTT9=
EXTT10=
EXTT11=
PLAYORDER=
